<svg xmlns="http://www.w3.org/2000/svg" xmlns:xlink="http://www.w3.org/1999/xlink" width="290" zoomAndPan="magnify" viewBox="0 0 217.5 44.999999" height="60" preserveAspectRatio="xMidYMid meet" version="1.0"><defs><g/><clipPath id="id1"><path d="M 4.5 1.511719 L 46.5 1.511719 L 46.5 43.511719 L 4.5 43.511719 Z M 4.5 1.511719 " clip-rule="nonzero"/></clipPath></defs><path fill="#222222" d="M 34.089844 29.917969 L 32.535156 25.308594 L 30.460938 19.222656 L 27.753906 11.273438 L 34.695312 31.722656 L 34.089844 29.917969 " fill-opacity="1" fill-rule="nonzero"/><path fill="#222222" d="M 36.039062 35.710938 L 37.421875 39.800781 C 37.425781 39.800781 37.429688 39.796875 37.433594 39.792969 L 36.046875 35.703125 L 36.039062 35.710938 " fill-opacity="1" fill-rule="nonzero"/><path fill="#1848a0" d="M 33.703125 41.847656 L 30.589844 32.816406 L 33.703125 41.847656 C 35.015625 41.289062 36.257812 40.605469 37.417969 39.804688 L 37.421875 39.800781 L 36.039062 35.710938 L 34.695312 31.722656 L 27.753906 11.273438 L 23.242188 11.273438 L 27.90625 24.953125 L 23.242188 11.273438 L 23.226562 11.328125 L 25.488281 17.941406 L 25.5 17.90625 L 28.96875 28.054688 L 32.34375 37.957031 L 32.335938 37.960938 L 33.667969 41.859375 C 33.679688 41.855469 33.691406 41.851562 33.703125 41.847656 " fill-opacity="1" fill-rule="nonzero"/><g clip-path="url(#id1)"><path fill="#1c98ed" d="M 46.492188 22.003906 C 46.492188 21.996094 46.492188 21.988281 46.492188 21.984375 C 46.488281 21.820312 46.484375 21.65625 46.476562 21.492188 C 46.476562 21.480469 46.472656 21.46875 46.472656 21.460938 C 46.464844 21.296875 46.457031 21.136719 46.445312 20.976562 C 46.445312 20.964844 46.441406 20.953125 46.441406 20.941406 C 46.429688 20.78125 46.417969 20.621094 46.402344 20.464844 C 46.398438 20.453125 46.398438 20.4375 46.398438 20.425781 C 46.382812 20.265625 46.363281 20.109375 46.34375 19.949219 C 46.34375 19.9375 46.34375 19.929688 46.339844 19.917969 C 46.320312 19.757812 46.300781 19.597656 46.277344 19.4375 C 46.273438 19.429688 46.273438 19.421875 46.273438 19.417969 C 46.25 19.253906 46.222656 19.089844 46.195312 18.929688 L 46.195312 18.921875 C 45.9375 17.421875 45.519531 15.980469 44.960938 14.609375 L 44.960938 14.605469 C 44.296875 12.96875 43.429688 11.433594 42.390625 10.03125 C 42.09375 9.628906 41.78125 9.238281 41.453125 8.855469 L 41.453125 8.851562 C 41.125 8.472656 40.789062 8.105469 40.4375 7.753906 L 40.429688 7.746094 C 40.082031 7.390625 39.71875 7.050781 39.347656 6.722656 L 39.332031 6.710938 C 39.261719 6.648438 39.1875 6.585938 39.117188 6.523438 L 39.109375 6.519531 C 38.882812 6.324219 38.648438 6.132812 38.414062 5.949219 L 38.410156 5.945312 C 38.335938 5.886719 38.257812 5.832031 38.183594 5.773438 C 38.175781 5.769531 38.167969 5.761719 38.160156 5.757812 C 38.089844 5.703125 38.015625 5.648438 37.945312 5.59375 C 37.9375 5.589844 37.929688 5.585938 37.925781 5.582031 C 37.683594 5.402344 37.441406 5.234375 37.195312 5.066406 L 37.183594 5.058594 C 37.109375 5.007812 37.03125 4.957031 36.953125 4.90625 C 36.941406 4.898438 36.933594 4.894531 36.917969 4.886719 C 36.847656 4.839844 36.777344 4.792969 36.707031 4.75 C 36.695312 4.742188 36.683594 4.734375 36.671875 4.726562 C 36.59375 4.675781 36.511719 4.625 36.433594 4.578125 L 36.425781 4.574219 C 36.257812 4.472656 36.085938 4.371094 35.910156 4.269531 C 35.90625 4.265625 35.898438 4.261719 35.894531 4.257812 C 35.816406 4.214844 35.738281 4.171875 35.660156 4.128906 C 35.648438 4.121094 35.632812 4.113281 35.617188 4.105469 C 35.546875 4.066406 35.476562 4.027344 35.40625 3.988281 C 35.386719 3.980469 35.371094 3.972656 35.355469 3.964844 C 35.28125 3.921875 35.207031 3.882812 35.128906 3.84375 C 35.121094 3.839844 35.109375 3.835938 35.101562 3.828125 C 34.925781 3.738281 34.75 3.652344 34.570312 3.566406 C 34.5625 3.5625 34.550781 3.558594 34.542969 3.550781 C 34.464844 3.515625 34.386719 3.480469 34.3125 3.445312 C 34.292969 3.433594 34.273438 3.425781 34.253906 3.417969 C 34.183594 3.386719 34.113281 3.355469 34.046875 3.324219 C 34.023438 3.3125 34.003906 3.304688 33.980469 3.292969 C 33.910156 3.261719 33.839844 3.230469 33.765625 3.203125 C 33.75 3.195312 33.734375 3.1875 33.714844 3.179688 C 33.535156 3.101562 33.355469 3.027344 33.171875 2.957031 C 33.160156 2.953125 33.148438 2.949219 33.136719 2.941406 C 33.058594 2.914062 32.980469 2.882812 32.90625 2.855469 C 32.882812 2.847656 32.859375 2.835938 32.835938 2.828125 C 32.765625 2.804688 32.699219 2.777344 32.632812 2.753906 C 32.605469 2.746094 32.582031 2.734375 32.554688 2.726562 C 32.484375 2.703125 32.417969 2.675781 32.347656 2.652344 C 32.324219 2.644531 32.300781 2.636719 32.28125 2.628906 C 32.195312 2.601562 32.109375 2.574219 32.023438 2.546875 C 32.019531 2.542969 32.011719 2.542969 32.007812 2.539062 C 31.910156 2.507812 31.816406 2.476562 31.722656 2.449219 C 31.707031 2.445312 31.695312 2.441406 31.679688 2.4375 C 31.601562 2.410156 31.527344 2.386719 31.449219 2.367188 C 31.421875 2.359375 31.394531 2.351562 31.367188 2.34375 C 31.300781 2.324219 31.234375 2.304688 31.167969 2.285156 C 31.136719 2.277344 31.109375 2.269531 31.078125 2.261719 C 31.011719 2.242188 30.945312 2.222656 30.878906 2.207031 C 30.851562 2.199219 30.824219 2.191406 30.796875 2.183594 C 30.71875 2.164062 30.640625 2.144531 30.5625 2.125 C 30.546875 2.121094 30.53125 2.117188 30.515625 2.113281 C 30.417969 2.089844 30.324219 2.066406 30.226562 2.046875 C 30.210938 2.042969 30.195312 2.039062 30.179688 2.035156 C 30.101562 2.015625 30.023438 2 29.945312 1.984375 C 29.914062 1.976562 29.882812 1.96875 29.855469 1.964844 C 29.789062 1.949219 29.722656 1.9375 29.65625 1.921875 C 29.625 1.917969 29.589844 1.910156 29.558594 1.902344 C 29.492188 1.890625 29.429688 1.878906 29.363281 1.867188 C 29.332031 1.859375 29.300781 1.855469 29.265625 1.847656 C 29.195312 1.835938 29.125 1.824219 29.050781 1.8125 C 29.027344 1.808594 29.003906 1.800781 28.980469 1.796875 C 28.882812 1.78125 28.785156 1.765625 28.6875 1.753906 C 28.671875 1.75 28.660156 1.746094 28.644531 1.746094 C 28.5625 1.734375 28.480469 1.722656 28.398438 1.710938 C 28.367188 1.707031 28.335938 1.703125 28.300781 1.699219 C 28.238281 1.6875 28.171875 1.679688 28.105469 1.671875 C 28.070312 1.667969 28.035156 1.664062 28 1.660156 C 27.933594 1.652344 27.871094 1.644531 27.808594 1.636719 C 27.773438 1.632812 27.738281 1.628906 27.703125 1.625 C 27.632812 1.617188 27.5625 1.613281 27.492188 1.605469 C 27.464844 1.601562 27.433594 1.597656 27.40625 1.597656 C 27.308594 1.589844 27.210938 1.578125 27.109375 1.570312 C 27.101562 1.570312 27.089844 1.570312 27.082031 1.570312 C 26.992188 1.5625 26.90625 1.558594 26.816406 1.550781 C 26.78125 1.550781 26.75 1.546875 26.714844 1.546875 C 26.648438 1.542969 26.582031 1.539062 26.515625 1.535156 C 26.480469 1.535156 26.441406 1.53125 26.40625 1.53125 C 26.339844 1.527344 26.277344 1.527344 26.214844 1.523438 C 26.175781 1.523438 26.140625 1.519531 26.101562 1.519531 C 26.03125 1.519531 25.964844 1.515625 25.898438 1.515625 C 25.863281 1.515625 25.832031 1.515625 25.800781 1.511719 C 25.699219 1.511719 25.601562 1.511719 25.5 1.511719 C 13.902344 1.511719 4.5 10.914062 4.5 22.511719 C 4.5 34.109375 13.902344 43.511719 25.5 43.511719 C 25.617188 43.511719 25.734375 43.511719 25.851562 43.507812 C 25.882812 43.507812 25.914062 43.507812 25.945312 43.507812 C 26.050781 43.503906 26.152344 43.5 26.257812 43.496094 C 26.273438 43.496094 26.285156 43.496094 26.296875 43.496094 C 26.414062 43.492188 26.53125 43.488281 26.644531 43.480469 C 26.675781 43.480469 26.703125 43.476562 26.730469 43.476562 C 26.832031 43.46875 26.933594 43.464844 27.03125 43.457031 C 27.050781 43.453125 27.066406 43.453125 27.085938 43.453125 C 27.203125 43.445312 27.320312 43.433594 27.433594 43.421875 C 27.457031 43.421875 27.480469 43.417969 27.503906 43.417969 C 27.605469 43.40625 27.707031 43.398438 27.808594 43.386719 C 27.824219 43.382812 27.84375 43.382812 27.863281 43.378906 C 27.980469 43.367188 28.097656 43.351562 28.21875 43.335938 C 28.230469 43.335938 28.246094 43.332031 28.257812 43.332031 C 28.367188 43.316406 28.472656 43.300781 28.578125 43.285156 C 28.597656 43.285156 28.613281 43.28125 28.628906 43.28125 C 28.75 43.261719 28.871094 43.242188 28.992188 43.222656 C 29.109375 43.203125 29.226562 43.179688 29.347656 43.160156 C 29.359375 43.15625 29.371094 43.15625 29.386719 43.152344 C 29.625 43.105469 29.867188 43.058594 30.105469 43.003906 C 30.113281 43.003906 30.117188 43 30.125 43 C 30.886719 42.828125 31.628906 42.617188 32.355469 42.367188 L 32.386719 42.355469 C 32.820312 42.203125 33.25 42.039062 33.667969 41.859375 L 32.335938 37.960938 C 31.914062 38.148438 31.484375 38.316406 31.050781 38.46875 L 31.078125 38.550781 L 31.035156 38.472656 C 30.933594 38.507812 30.835938 38.542969 30.738281 38.574219 L 30.730469 38.578125 C 30.597656 38.617188 30.464844 38.660156 30.335938 38.699219 C 30.324219 38.703125 30.3125 38.707031 30.304688 38.707031 C 30.179688 38.746094 30.054688 38.78125 29.925781 38.816406 C 29.910156 38.820312 29.894531 38.824219 29.878906 38.828125 C 29.757812 38.859375 29.636719 38.890625 29.519531 38.921875 C 29.496094 38.925781 29.472656 38.933594 29.449219 38.9375 C 29.335938 38.964844 29.21875 38.992188 29.105469 39.015625 C 29.074219 39.023438 29.046875 39.027344 29.019531 39.035156 C 28.90625 39.058594 28.796875 39.078125 28.6875 39.101562 C 28.652344 39.105469 28.621094 39.113281 28.585938 39.121094 C 28.480469 39.140625 28.371094 39.160156 28.265625 39.175781 C 28.226562 39.183594 28.191406 39.1875 28.152344 39.195312 C 28.046875 39.210938 27.945312 39.226562 27.839844 39.242188 C 27.800781 39.246094 27.757812 39.253906 27.714844 39.257812 C 27.613281 39.269531 27.511719 39.28125 27.414062 39.292969 C 27.367188 39.300781 27.320312 39.304688 27.273438 39.308594 C 27.175781 39.320312 27.078125 39.328125 26.980469 39.335938 C 26.929688 39.339844 26.882812 39.347656 26.835938 39.351562 C 26.734375 39.359375 26.636719 39.363281 26.535156 39.371094 C 26.488281 39.375 26.441406 39.378906 26.390625 39.378906 C 26.285156 39.382812 26.179688 39.386719 26.070312 39.390625 C 26.03125 39.394531 25.988281 39.394531 25.945312 39.398438 C 25.796875 39.402344 25.648438 39.402344 25.5 39.402344 C 16.171875 39.402344 8.609375 31.839844 8.609375 22.511719 C 8.609375 13.183594 16.171875 5.621094 25.5 5.621094 L 25.507812 5.621094 C 25.640625 5.621094 25.769531 5.621094 25.902344 5.625 C 25.945312 5.625 25.992188 5.628906 26.035156 5.628906 C 26.125 5.632812 26.214844 5.636719 26.304688 5.640625 C 26.355469 5.640625 26.40625 5.644531 26.457031 5.648438 C 26.542969 5.652344 26.625 5.65625 26.710938 5.664062 C 26.761719 5.667969 26.8125 5.671875 26.863281 5.675781 C 26.949219 5.683594 27.039062 5.691406 27.125 5.699219 C 27.171875 5.703125 27.214844 5.707031 27.261719 5.710938 C 27.382812 5.722656 27.507812 5.738281 27.632812 5.753906 C 27.65625 5.757812 27.683594 5.761719 27.707031 5.765625 C 27.816406 5.777344 27.925781 5.792969 28.03125 5.808594 C 28.082031 5.816406 28.132812 5.824219 28.183594 5.832031 C 28.261719 5.847656 28.339844 5.859375 28.417969 5.871094 C 28.472656 5.882812 28.53125 5.890625 28.585938 5.902344 C 28.65625 5.914062 28.730469 5.929688 28.800781 5.945312 C 28.859375 5.957031 28.914062 5.964844 28.972656 5.976562 C 29.042969 5.992188 29.117188 6.007812 29.1875 6.023438 C 29.242188 6.039062 29.296875 6.050781 29.351562 6.0625 C 29.441406 6.082031 29.527344 6.105469 29.617188 6.125 C 29.699219 6.148438 29.78125 6.167969 29.863281 6.191406 C 29.933594 6.210938 30.003906 6.226562 30.074219 6.246094 C 30.136719 6.265625 30.199219 6.285156 30.261719 6.300781 C 30.320312 6.320312 30.378906 6.335938 30.4375 6.351562 C 30.503906 6.375 30.566406 6.394531 30.632812 6.414062 C 30.6875 6.433594 30.742188 6.449219 30.792969 6.46875 C 30.863281 6.488281 30.929688 6.511719 30.996094 6.535156 C 31.046875 6.550781 31.09375 6.570312 31.140625 6.585938 C 31.214844 6.613281 31.285156 6.636719 31.355469 6.664062 C 31.375 6.671875 31.394531 6.679688 31.414062 6.6875 C 31.589844 6.75 31.761719 6.820312 31.933594 6.890625 C 31.957031 6.898438 31.984375 6.910156 32.007812 6.921875 C 32.085938 6.953125 32.167969 6.988281 32.246094 7.023438 C 32.277344 7.035156 32.3125 7.050781 32.347656 7.066406 C 32.425781 7.101562 32.503906 7.136719 32.582031 7.171875 C 32.613281 7.1875 32.640625 7.199219 32.671875 7.214844 C 32.753906 7.253906 32.835938 7.292969 32.917969 7.332031 C 32.933594 7.339844 32.953125 7.351562 32.972656 7.359375 C 33.359375 7.550781 33.738281 7.757812 34.105469 7.976562 C 34.117188 7.980469 34.125 7.988281 34.136719 7.992188 C 34.226562 8.046875 34.3125 8.101562 34.402344 8.15625 C 34.410156 8.160156 34.421875 8.167969 34.429688 8.171875 C 34.902344 8.46875 35.363281 8.785156 35.800781 9.125 C 35.8125 9.132812 35.820312 9.140625 35.828125 9.144531 C 35.878906 9.183594 35.929688 9.226562 35.980469 9.265625 C 35.992188 9.273438 36.003906 9.285156 36.019531 9.296875 C 36.066406 9.335938 36.117188 9.375 36.164062 9.414062 C 36.179688 9.425781 36.191406 9.4375 36.207031 9.449219 C 36.253906 9.488281 36.300781 9.523438 36.347656 9.566406 C 36.363281 9.578125 36.378906 9.589844 36.394531 9.605469 C 36.4375 9.640625 36.484375 9.679688 36.527344 9.71875 C 36.546875 9.734375 36.5625 9.75 36.578125 9.761719 C 36.621094 9.800781 36.664062 9.835938 36.707031 9.875 C 36.726562 9.890625 36.746094 9.910156 36.765625 9.925781 C 36.804688 9.960938 36.84375 10 36.882812 10.035156 C 36.90625 10.054688 36.929688 10.078125 36.953125 10.097656 C 36.988281 10.128906 37.023438 10.164062 37.058594 10.195312 C 37.085938 10.222656 37.117188 10.25 37.144531 10.277344 C 37.171875 10.304688 37.203125 10.332031 37.230469 10.359375 C 37.273438 10.398438 37.3125 10.441406 37.355469 10.480469 C 37.371094 10.496094 37.382812 10.511719 37.402344 10.527344 C 37.554688 10.679688 37.710938 10.839844 37.859375 11 L 37.871094 11.011719 C 38.324219 11.5 38.75 12.011719 39.144531 12.550781 C 39.320312 12.792969 39.492188 13.042969 39.65625 13.292969 C 39.730469 13.40625 39.800781 13.519531 39.871094 13.632812 C 39.878906 13.644531 39.886719 13.65625 39.894531 13.667969 C 40.207031 14.179688 40.496094 14.707031 40.753906 15.25 C 40.757812 15.257812 40.761719 15.265625 40.765625 15.273438 C 40.824219 15.398438 40.882812 15.523438 40.9375 15.648438 C 40.949219 15.671875 40.957031 15.695312 40.96875 15.71875 C 41.015625 15.832031 41.066406 15.945312 41.113281 16.058594 C 41.125 16.085938 41.136719 16.113281 41.148438 16.144531 C 41.191406 16.253906 41.234375 16.363281 41.277344 16.472656 C 41.289062 16.503906 41.300781 16.535156 41.3125 16.566406 C 41.355469 16.675781 41.394531 16.789062 41.433594 16.898438 C 41.445312 16.929688 41.457031 16.957031 41.464844 16.984375 C 41.507812 17.105469 41.546875 17.226562 41.585938 17.34375 C 41.59375 17.367188 41.597656 17.386719 41.605469 17.410156 C 41.652344 17.550781 41.695312 17.691406 41.734375 17.832031 L 41.734375 17.835938 C 41.863281 18.277344 41.972656 18.726562 42.0625 19.179688 C 42.066406 19.199219 42.070312 19.222656 42.074219 19.246094 C 42.097656 19.371094 42.121094 19.496094 42.144531 19.625 C 42.148438 19.65625 42.15625 19.691406 42.160156 19.722656 C 42.179688 19.839844 42.199219 19.957031 42.214844 20.074219 C 42.222656 20.128906 42.230469 20.183594 42.238281 20.238281 C 42.246094 20.304688 42.253906 20.367188 42.265625 20.429688 C 42.273438 20.507812 42.28125 20.582031 42.289062 20.65625 C 42.292969 20.703125 42.300781 20.75 42.304688 20.796875 C 42.304688 20.804688 42.304688 20.8125 42.308594 20.820312 C 42.320312 20.9375 42.328125 21.054688 42.339844 21.175781 C 42.34375 21.21875 42.34375 21.265625 42.347656 21.308594 C 42.355469 21.398438 42.359375 21.484375 42.363281 21.574219 C 42.367188 21.621094 42.371094 21.667969 42.371094 21.71875 C 42.375 21.808594 42.378906 21.898438 42.382812 21.988281 C 42.382812 22.03125 42.386719 22.070312 42.386719 22.117188 C 42.390625 22.246094 42.390625 22.378906 42.390625 22.511719 C 42.390625 22.589844 42.390625 22.671875 42.386719 22.75 C 42.324219 27.335938 40.433594 31.476562 37.410156 34.484375 L 37.824219 35.710938 L 38.84375 38.726562 C 39.003906 38.59375 39.167969 38.457031 39.324219 38.316406 L 39.328125 38.316406 C 39.773438 37.925781 40.199219 37.519531 40.613281 37.09375 L 40.621094 37.085938 C 40.960938 36.730469 41.289062 36.367188 41.605469 35.988281 L 41.617188 35.976562 C 41.675781 35.90625 41.734375 35.835938 41.792969 35.761719 C 41.796875 35.757812 41.800781 35.753906 41.804688 35.746094 C 42.050781 35.445312 42.289062 35.132812 42.519531 34.816406 L 42.53125 34.800781 C 42.582031 34.730469 42.632812 34.65625 42.6875 34.582031 C 42.691406 34.570312 42.699219 34.5625 42.707031 34.554688 C 42.757812 34.480469 42.804688 34.410156 42.855469 34.335938 C 42.859375 34.328125 42.867188 34.324219 42.871094 34.316406 C 43.035156 34.070312 43.195312 33.824219 43.351562 33.574219 L 43.355469 33.570312 C 43.40625 33.492188 43.453125 33.410156 43.5 33.332031 C 43.507812 33.320312 43.515625 33.308594 43.523438 33.296875 C 43.5625 33.226562 43.605469 33.15625 43.648438 33.085938 C 43.65625 33.070312 43.664062 33.054688 43.671875 33.042969 C 43.714844 32.96875 43.757812 32.894531 43.796875 32.824219 C 43.804688 32.8125 43.808594 32.804688 43.816406 32.792969 C 43.957031 32.539062 44.09375 32.28125 44.226562 32.023438 C 44.234375 32.007812 44.242188 31.996094 44.246094 31.980469 C 44.285156 31.910156 44.320312 31.839844 44.355469 31.765625 C 44.363281 31.75 44.375 31.730469 44.382812 31.710938 C 44.417969 31.640625 44.449219 31.574219 44.480469 31.503906 C 44.492188 31.484375 44.5 31.46875 44.507812 31.449219 C 44.542969 31.375 44.578125 31.300781 44.613281 31.222656 C 44.617188 31.210938 44.625 31.203125 44.628906 31.191406 C 44.707031 31.011719 44.789062 30.832031 44.863281 30.652344 C 44.867188 30.640625 44.871094 30.628906 44.878906 30.617188 C 44.910156 30.542969 44.941406 30.46875 44.972656 30.390625 C 44.980469 30.371094 44.988281 30.347656 44.996094 30.324219 C 45.023438 30.257812 45.050781 30.191406 45.078125 30.125 C 45.085938 30.101562 45.097656 30.074219 45.105469 30.050781 C 45.132812 29.984375 45.15625 29.914062 45.183594 29.847656 C 45.191406 29.824219 45.199219 29.804688 45.207031 29.78125 C 45.238281 29.703125 45.265625 29.621094 45.292969 29.542969 C 45.296875 29.53125 45.300781 29.523438 45.304688 29.511719 C 45.335938 29.417969 45.371094 29.324219 45.402344 29.230469 C 45.433594 29.140625 45.460938 29.050781 45.492188 28.960938 C 45.5 28.9375 45.503906 28.914062 45.511719 28.894531 C 45.535156 28.824219 45.554688 28.757812 45.578125 28.6875 C 45.585938 28.660156 45.59375 28.632812 45.601562 28.605469 C 45.621094 28.539062 45.640625 28.476562 45.660156 28.410156 C 45.667969 28.382812 45.675781 28.351562 45.683594 28.324219 C 45.703125 28.257812 45.722656 28.1875 45.742188 28.121094 C 45.75 28.097656 45.753906 28.070312 45.761719 28.046875 C 45.785156 27.957031 45.808594 27.867188 45.832031 27.78125 L 45.835938 27.769531 C 45.859375 27.675781 45.882812 27.578125 45.90625 27.484375 C 45.914062 27.464844 45.917969 27.441406 45.921875 27.421875 C 45.9375 27.351562 45.957031 27.277344 45.972656 27.207031 C 45.980469 27.175781 45.988281 27.144531 45.992188 27.113281 C 46.007812 27.050781 46.023438 26.984375 46.035156 26.921875 C 46.042969 26.890625 46.050781 26.855469 46.054688 26.824219 C 46.070312 26.757812 46.082031 26.695312 46.09375 26.632812 C 46.101562 26.601562 46.109375 26.570312 46.113281 26.535156 C 46.128906 26.46875 46.140625 26.394531 46.152344 26.328125 C 46.160156 26.300781 46.164062 26.277344 46.167969 26.253906 C 46.183594 26.15625 46.203125 26.058594 46.21875 25.964844 C 46.21875 25.957031 46.21875 25.949219 46.222656 25.941406 C 46.234375 25.855469 46.25 25.765625 46.261719 25.679688 C 46.265625 25.648438 46.269531 25.617188 46.277344 25.585938 C 46.285156 25.519531 46.292969 25.457031 46.304688 25.390625 C 46.308594 25.355469 46.3125 25.320312 46.320312 25.285156 C 46.328125 25.222656 46.335938 25.160156 46.34375 25.097656 C 46.347656 25.0625 46.351562 25.023438 46.355469 24.988281 C 46.363281 24.925781 46.371094 24.859375 46.375 24.796875 C 46.378906 24.761719 46.382812 24.730469 46.386719 24.695312 C 46.394531 24.621094 46.402344 24.542969 46.410156 24.464844 C 46.410156 24.445312 46.414062 24.425781 46.414062 24.402344 C 46.425781 24.308594 46.433594 24.210938 46.441406 24.113281 C 46.441406 24.085938 46.441406 24.0625 46.445312 24.035156 C 46.449219 23.964844 46.457031 23.890625 46.460938 23.816406 C 46.460938 23.78125 46.464844 23.746094 46.464844 23.710938 C 46.46875 23.648438 46.472656 23.585938 46.476562 23.519531 C 46.476562 23.484375 46.480469 23.445312 46.480469 23.40625 C 46.484375 23.34375 46.484375 23.28125 46.488281 23.21875 C 46.488281 23.183594 46.488281 23.144531 46.492188 23.109375 C 46.492188 23.039062 46.496094 22.972656 46.496094 22.90625 C 46.496094 22.871094 46.496094 22.839844 46.496094 22.808594 C 46.5 22.710938 46.5 22.609375 46.5 22.511719 C 46.5 22.34375 46.496094 22.171875 46.492188 22.003906 " fill-opacity="1" fill-rule="nonzero"/></g><path fill="#1c98ed" d="M 25.488281 17.941406 L 23.226562 11.328125 L 22.503906 13.453125 L 22.484375 13.507812 L 16.40625 31.320312 L 27.753906 29.074219 L 22.332031 27.242188 L 24.757812 20.082031 L 24.757812 20.074219 L 24.761719 20.078125 L 25.488281 17.941406 " fill-opacity="1" fill-rule="nonzero"/><g fill="#000000" fill-opacity="1"><g transform="translate(43.564837, 24.736385)"><g/></g></g><g fill="#000000" fill-opacity="1"><g transform="translate(50.067304, 24.736385)"><g/></g></g><g fill="#000000" fill-opacity="1"><g transform="translate(56.563267, 24.736385)"><g><path d="M 10.066406 0 L 13.398438 0 L 8.296875 -14.179688 L 4.796875 -14.179688 L -0.308594 0 L 3.023438 0 L 3.898438 -2.671875 L 9.191406 -2.671875 Z M 4.726562 -5.269531 L 6.546875 -10.894531 L 8.367188 -5.269531 Z M 4.726562 -5.269531 "/></g></g></g><g fill="#000000" fill-opacity="1"><g transform="translate(70.484576, 24.736385)"><g><path d="M 13.753906 -14.179688 L 9.238281 -4.371094 L 4.773438 -14.179688 L 1.394531 -14.179688 L 1.394531 0 L 4.515625 0 L 4.515625 -8.460938 L 8.34375 0 L 10.136719 0 L 13.992188 -8.4375 L 13.992188 0 L 17.109375 0 L 17.109375 -14.179688 Z M 13.753906 -14.179688 "/></g></g></g><g fill="#000000" fill-opacity="1"><g transform="translate(89.816446, 24.736385)"><g/></g></g><g fill="#000000" fill-opacity="1"><g transform="translate(96.318912, 24.736385)"><g><path d="M 8.152344 0.1875 C 10.964844 0.1875 13.398438 -1.394531 14.605469 -3.710938 L 11.910156 -5.105469 C 11.226562 -3.757812 9.832031 -2.859375 8.152344 -2.859375 C 5.765625 -2.859375 3.945312 -4.703125 3.945312 -7.089844 C 3.945312 -9.476562 5.765625 -11.320312 8.152344 -11.320312 C 9.832031 -11.320312 11.226562 -10.421875 11.910156 -9.074219 L 14.605469 -10.46875 C 13.398438 -12.785156 10.964844 -14.367188 8.152344 -14.367188 C 4.136719 -14.367188 0.875 -11.105469 0.875 -7.089844 C 0.875 -3.070312 4.136719 0.1875 8.152344 0.1875 Z M 8.152344 0.1875 "/></g></g></g><g fill="#000000" fill-opacity="1"><g transform="translate(112.366638, 24.736385)"><g><path d="M 8.152344 0.1875 C 12.195312 0.1875 15.433594 -3.070312 15.433594 -7.089844 C 15.433594 -11.105469 12.195312 -14.367188 8.152344 -14.367188 C 4.136719 -14.367188 0.875 -11.105469 0.875 -7.089844 C 0.875 -3.070312 4.136719 0.1875 8.152344 0.1875 Z M 8.152344 -2.859375 C 5.765625 -2.859375 3.945312 -4.703125 3.945312 -7.089844 C 3.945312 -9.476562 5.765625 -11.320312 8.152344 -11.320312 C 10.5625 -11.320312 12.382812 -9.476562 12.382812 -7.089844 C 12.382812 -4.703125 10.5625 -2.859375 8.152344 -2.859375 Z M 8.152344 -2.859375 "/></g></g></g><g fill="#000000" fill-opacity="1"><g transform="translate(129.524832, 24.736385)"><g><path d="M 13.753906 -14.179688 L 9.238281 -4.371094 L 4.773438 -14.179688 L 1.394531 -14.179688 L 1.394531 0 L 4.515625 0 L 4.515625 -8.460938 L 8.34375 0 L 10.136719 0 L 13.992188 -8.4375 L 13.992188 0 L 17.109375 0 L 17.109375 -14.179688 Z M 13.753906 -14.179688 "/></g></g></g><g fill="#000000" fill-opacity="1"><g transform="translate(148.856698, 24.736385)"><g><path d="M 7.421875 -14.179688 L 1.394531 -14.179688 L 1.394531 0 L 4.515625 0 L 4.515625 -5.742188 L 7.421875 -5.742188 C 9.808594 -5.742188 11.652344 -7.515625 11.652344 -9.902344 C 11.652344 -12.265625 9.808594 -14.179688 7.421875 -14.179688 Z M 6.925781 -8.320312 L 4.515625 -8.320312 L 4.515625 -11.4375 L 6.925781 -11.4375 C 7.917969 -11.4375 8.671875 -10.800781 8.671875 -9.878906 C 8.671875 -8.933594 7.917969 -8.320312 6.925781 -8.320312 Z M 6.925781 -8.320312 "/></g></g></g><g fill="#000000" fill-opacity="1"><g transform="translate(161.431269, 24.736385)"><g><path d="M 10.066406 0 L 13.398438 0 L 8.296875 -14.179688 L 4.796875 -14.179688 L -0.308594 0 L 3.023438 0 L 3.898438 -2.671875 L 9.191406 -2.671875 Z M 4.726562 -5.269531 L 6.546875 -10.894531 L 8.367188 -5.269531 Z M 4.726562 -5.269531 "/></g></g></g><g fill="#000000" fill-opacity="1"><g transform="translate(175.352578, 24.736385)"><g><path d="M 11.578125 -14.179688 L 11.578125 -4.796875 L 4.609375 -14.179688 L 1.394531 -14.179688 L 1.394531 0 L 4.515625 0 L 4.515625 -9.40625 L 11.460938 0 L 14.675781 0 L 14.675781 -14.179688 Z M 11.578125 -14.179688 "/></g></g></g><g fill="#000000" fill-opacity="1"><g transform="translate(192.274501, 24.736385)"><g><path d="M 12.738281 -14.179688 L 9.265625 -14.179688 L 6.238281 -9.382812 L 3.214844 -14.179688 L -0.308594 -14.179688 L 4.679688 -6.664062 L 4.679688 0 L 7.796875 0 L 7.796875 -6.6875 Z M 12.738281 -14.179688 "/></g></g></g><g fill="#000000" fill-opacity="1"><g transform="translate(55.55548, 34.160106)"><g><path d="M 0.625 0 L 2.722656 0 C 4.472656 0 5.902344 -1.421875 5.902344 -3.179688 C 5.902344 -4.9375 4.472656 -6.359375 2.722656 -6.359375 L 0.625 -6.359375 Z M 2.023438 -1.238281 L 2.023438 -5.117188 L 2.714844 -5.117188 C 3.71875 -5.117188 4.503906 -4.28125 4.503906 -3.179688 C 4.503906 -2.078125 3.71875 -1.238281 2.714844 -1.238281 Z M 2.023438 -1.238281 "/></g></g></g><g fill="#000000" fill-opacity="1"><g transform="translate(64.690526, 34.160106)"><g><path d="M 0.679688 0 L 2.078125 0 L 2.078125 -6.359375 L 0.679688 -6.359375 Z M 0.679688 0 "/></g></g></g><g fill="#000000" fill-opacity="1"><g transform="translate(70.275429, 34.160106)"><g><path d="M 3.65625 -3.488281 L 3.65625 -2.394531 L 5.40625 -2.394531 C 5.109375 -1.726562 4.449219 -1.28125 3.667969 -1.28125 C 2.597656 -1.28125 1.769531 -2.109375 1.769531 -3.179688 C 1.769531 -4.25 2.597656 -5.078125 3.667969 -5.078125 C 4.417969 -5.078125 5.035156 -4.671875 5.351562 -4.070312 L 6.558594 -4.695312 C 6.007812 -5.734375 4.917969 -6.441406 3.667969 -6.441406 C 1.855469 -6.441406 0.402344 -4.980469 0.402344 -3.179688 C 0.402344 -1.378906 1.855469 0.0859375 3.667969 0.0859375 C 5.46875 0.0859375 6.929688 -1.378906 6.929688 -3.179688 L 6.929688 -3.488281 Z M 3.65625 -3.488281 "/></g></g></g><g fill="#000000" fill-opacity="1"><g transform="translate(80.44902, 34.160106)"><g><path d="M 0.679688 0 L 2.078125 0 L 2.078125 -6.359375 L 0.679688 -6.359375 Z M 0.679688 0 "/></g></g></g><g fill="#000000" fill-opacity="1"><g transform="translate(86.033923, 34.160106)"><g><path d="M 4.546875 -6.359375 L -0.0546875 -6.359375 L -0.0546875 -5.117188 L 1.558594 -5.117188 L 1.558594 0 L 2.945312 0 L 2.945312 -5.117188 L 4.546875 -5.117188 Z M 4.546875 -6.359375 "/></g></g></g><g fill="#000000" fill-opacity="1"><g transform="translate(93.367407, 34.160106)"><g><path d="M 4.515625 0 L 6.007812 0 L 3.71875 -6.359375 L 2.152344 -6.359375 L -0.136719 0 L 1.355469 0 L 1.75 -1.199219 L 4.121094 -1.199219 Z M 2.121094 -2.363281 L 2.933594 -4.886719 L 3.75 -2.363281 Z M 2.121094 -2.363281 "/></g></g></g><g fill="#000000" fill-opacity="1"><g transform="translate(102.078553, 34.160106)"><g><path d="M 2.023438 -1.238281 L 2.023438 -6.359375 L 0.625 -6.359375 L 0.625 0 L 4.132812 0 L 4.132812 -1.238281 Z M 2.023438 -1.238281 "/></g></g></g><g fill="#000000" fill-opacity="1"><g transform="translate(109.072919, 34.160106)"><g/></g></g><g fill="#000000" fill-opacity="1"><g transform="translate(114.456476, 34.160106)"><g><path d="M 7.386719 -6.359375 L 6.253906 -1.949219 L 5.035156 -6.359375 L 3.675781 -6.359375 L 2.46875 -1.929688 L 1.324219 -6.359375 L -0.148438 -6.359375 L 1.589844 0 L 3.199219 0 L 4.355469 -4.472656 L 5.511719 0 L 7.121094 0 L 8.859375 -6.359375 Z M 7.386719 -6.359375 "/></g></g></g><g fill="#000000" fill-opacity="1"><g transform="translate(126.007734, 34.160106)"><g><path d="M 4.503906 -5.128906 L 4.503906 -6.359375 L 0.679688 -6.359375 L 0.679688 0 L 4.503906 0 L 4.503906 -1.230469 L 2.078125 -1.230469 L 2.078125 -2.566406 L 4.152344 -2.566406 L 4.152344 -3.792969 L 2.078125 -3.792969 L 2.078125 -5.128906 Z M 4.503906 -5.128906 "/></g></g></g><g fill="#000000" fill-opacity="1"><g transform="translate(133.786305, 34.160106)"><g><path d="M 4.449219 -3.222656 C 4.929688 -3.476562 5.234375 -3.921875 5.234375 -4.589844 C 5.234375 -5.710938 4.386719 -6.359375 3.316406 -6.359375 L 0.625 -6.359375 L 0.625 0 L 3.5625 0 C 4.621094 0 5.445312 -0.613281 5.445312 -1.738281 C 5.445312 -2.511719 5.042969 -2.988281 4.449219 -3.222656 Z M 3.835938 -4.441406 C 3.835938 -4.070312 3.527344 -3.75 3.148438 -3.75 L 2.023438 -3.75 L 2.023438 -5.117188 L 3.148438 -5.117188 C 3.527344 -5.117188 3.835938 -4.820312 3.835938 -4.441406 Z M 3.359375 -1.238281 L 2.023438 -1.238281 L 2.023438 -2.605469 L 3.359375 -2.605469 C 3.75 -2.605469 4.046875 -2.289062 4.046875 -1.917969 C 4.046875 -1.535156 3.75 -1.238281 3.359375 -1.238281 Z M 3.359375 -1.238281 "/></g></g></g><g fill="#000000" fill-opacity="1"><g transform="translate(142.380883, 34.160106)"><g/></g></g><g fill="#000000" fill-opacity="1"><g transform="translate(147.764436, 34.160106)"><g><path d="M 2.585938 0.0859375 C 3.773438 0.0859375 4.78125 -0.613281 4.78125 -1.800781 C 4.78125 -4.152344 1.855469 -3.570312 1.855469 -4.671875 C 1.855469 -5.035156 2.128906 -5.203125 2.46875 -5.203125 C 2.828125 -5.203125 3.191406 -5.003906 3.507812 -4.652344 L 4.441406 -5.542969 C 3.972656 -6.082031 3.265625 -6.441406 2.480469 -6.441406 C 1.472656 -6.441406 0.445312 -5.839844 0.445312 -4.566406 C 0.445312 -2.40625 3.378906 -2.925781 3.378906 -1.8125 C 3.378906 -1.460938 3.082031 -1.230469 2.597656 -1.230469 C 2.011719 -1.230469 1.558594 -1.558594 1.324219 -2.054688 L 0.167969 -1.335938 C 0.582031 -0.539062 1.472656 0.0859375 2.585938 0.0859375 Z M 2.585938 0.0859375 "/></g></g></g><g fill="#000000" fill-opacity="1"><g transform="translate(155.627787, 34.160106)"><g><path d="M 4.503906 -5.128906 L 4.503906 -6.359375 L 0.679688 -6.359375 L 0.679688 0 L 4.503906 0 L 4.503906 -1.230469 L 2.078125 -1.230469 L 2.078125 -2.566406 L 4.152344 -2.566406 L 4.152344 -3.792969 L 2.078125 -3.792969 L 2.078125 -5.128906 Z M 4.503906 -5.128906 "/></g></g></g><g fill="#000000" fill-opacity="1"><g transform="translate(163.406358, 34.160106)"><g><path d="M 3.941406 -2.617188 C 4.695312 -2.839844 5.222656 -3.539062 5.222656 -4.410156 C 5.222656 -5.488281 4.417969 -6.359375 3.328125 -6.359375 L 0.625 -6.359375 L 0.625 0 L 2.023438 0 L 2.023438 -2.457031 L 2.585938 -2.457031 L 4.152344 0 L 5.722656 0 Z M 3.117188 -3.613281 L 2.023438 -3.613281 L 2.023438 -5.117188 L 3.117188 -5.117188 C 3.5625 -5.117188 3.890625 -4.800781 3.890625 -4.367188 C 3.890625 -3.921875 3.5625 -3.613281 3.117188 -3.613281 Z M 3.117188 -3.613281 "/></g></g></g><g fill="#000000" fill-opacity="1"><g transform="translate(171.916154, 34.160106)"><g><path d="M 4.449219 -6.359375 L 2.933594 -1.8125 L 1.421875 -6.359375 L -0.136719 -6.359375 L 2.152344 0 L 3.71875 0 L 6.007812 -6.359375 Z M 4.449219 -6.359375 "/></g></g></g><g fill="#000000" fill-opacity="1"><g transform="translate(180.627305, 34.160106)"><g><path d="M 0.679688 0 L 2.078125 0 L 2.078125 -6.359375 L 0.679688 -6.359375 Z M 0.679688 0 "/></g></g></g><g fill="#000000" fill-opacity="1"><g transform="translate(186.212212, 34.160106)"><g><path d="M 3.65625 0.0859375 C 4.917969 0.0859375 6.007812 -0.625 6.550781 -1.664062 L 5.339844 -2.289062 C 5.035156 -1.683594 4.410156 -1.28125 3.65625 -1.28125 C 2.585938 -1.28125 1.769531 -2.109375 1.769531 -3.179688 C 1.769531 -4.25 2.585938 -5.078125 3.65625 -5.078125 C 4.410156 -5.078125 5.035156 -4.671875 5.339844 -4.070312 L 6.550781 -4.695312 C 6.007812 -5.734375 4.917969 -6.441406 3.65625 -6.441406 C 1.855469 -6.441406 0.390625 -4.980469 0.390625 -3.179688 C 0.390625 -1.378906 1.855469 0.0859375 3.65625 0.0859375 Z M 3.65625 0.0859375 "/></g></g></g><g fill="#000000" fill-opacity="1"><g transform="translate(195.877126, 34.160106)"><g><path d="M 4.503906 -5.128906 L 4.503906 -6.359375 L 0.679688 -6.359375 L 0.679688 0 L 4.503906 0 L 4.503906 -1.230469 L 2.078125 -1.230469 L 2.078125 -2.566406 L 4.152344 -2.566406 L 4.152344 -3.792969 L 2.078125 -3.792969 L 2.078125 -5.128906 Z M 4.503906 -5.128906 "/></g></g></g></svg>